<svg width="219" height="43" viewBox="0 0 219 43" fill="none" xmlns="http://www.w3.org/2000/svg">
<path d="M33.288 2.912V42H25.448V25.368H8.704V42H0.864V2.912H8.704V18.984H25.448V2.912H33.288ZM52.3166 42.504C49.778 42.504 47.5006 42.056 45.4846 41.16C43.4686 40.2267 41.8633 38.976 40.6686 37.408C39.5113 35.84 38.8766 34.104 38.7646 32.2H46.6606C46.81 33.3947 47.3886 34.384 48.3966 35.168C49.442 35.952 50.73 36.344 52.2606 36.344C53.754 36.344 54.9113 36.0453 55.7326 35.448C56.5913 34.8507 57.0206 34.0853 57.0206 33.152C57.0206 32.144 56.498 31.3973 55.4526 30.912C54.4446 30.3893 52.8206 29.8293 50.5806 29.232C48.266 28.672 46.362 28.0933 44.8686 27.496C43.4126 26.8987 42.1433 25.984 41.0606 24.752C40.0153 23.52 39.4926 21.8587 39.4926 19.768C39.4926 18.0507 39.978 16.4827 40.9486 15.064C41.9566 13.6453 43.3753 12.5253 45.2046 11.704C47.0713 10.8827 49.2553 10.472 51.7566 10.472C55.4526 10.472 58.402 11.4053 60.6046 13.272C62.8073 15.1013 64.0206 17.584 64.2446 20.72H56.7406C56.6286 19.488 56.106 18.5173 55.1726 17.808C54.2766 17.0613 53.0633 16.688 51.5326 16.688C50.114 16.688 49.0126 16.9493 48.2286 17.472C47.482 17.9947 47.1086 18.7227 47.1086 19.656C47.1086 20.7013 47.6313 21.504 48.6766 22.064C49.722 22.5867 51.346 23.128 53.5486 23.688C55.7886 24.248 57.6366 24.8267 59.0926 25.424C60.5486 26.0213 61.7993 26.9547 62.8446 28.224C63.9273 29.456 64.4873 31.0987 64.5246 33.152C64.5246 34.944 64.0206 36.5493 63.0126 37.968C62.042 39.3867 60.6233 40.5067 58.7566 41.328C56.9273 42.112 54.7806 42.504 52.3166 42.504ZM68.3842 26.488C68.3842 23.2773 69.0376 20.4773 70.3442 18.088C71.6509 15.6613 73.4616 13.7947 75.7762 12.488C78.0909 11.144 80.7416 10.472 83.7282 10.472C87.5736 10.472 90.7469 11.4427 93.2482 13.384C95.7869 15.288 97.4856 17.976 98.3442 21.448H89.8882C89.4402 20.104 88.6749 19.0587 87.5922 18.312C86.5469 17.528 85.2402 17.136 83.6722 17.136C81.4322 17.136 79.6589 17.9573 78.3522 19.6C77.0456 21.2053 76.3922 23.5013 76.3922 26.488C76.3922 29.4373 77.0456 31.7333 78.3522 33.376C79.6589 34.9813 81.4322 35.784 83.6722 35.784C86.8456 35.784 88.9176 34.3653 89.8882 31.528H98.3442C97.4856 34.888 95.7869 37.5573 93.2482 39.536C90.7096 41.5147 87.5362 42.504 83.7282 42.504C80.7416 42.504 78.0909 41.8507 75.7762 40.544C73.4616 39.2 71.6509 37.3333 70.3442 34.944C69.0376 32.5173 68.3842 29.6987 68.3842 26.488ZM121 10.528C123.352 10.528 125.442 11.0507 127.272 12.096C129.101 13.104 130.52 14.616 131.528 16.632C132.573 18.6107 133.096 21 133.096 23.8V42H125.256V24.864C125.256 22.4 124.64 20.5147 123.408 19.208C122.176 17.864 120.496 17.192 118.368 17.192C116.202 17.192 114.485 17.864 113.216 19.208C111.984 20.5147 111.368 22.4 111.368 24.864V42H103.528V0.559999H111.368V14.84C112.376 13.496 113.72 12.4507 115.4 11.704C117.08 10.92 118.946 10.528 121 10.528ZM153.767 42.504C150.781 42.504 148.093 41.8507 145.703 40.544C143.314 39.2 141.429 37.3147 140.047 34.888C138.703 32.4613 138.031 29.6613 138.031 26.488C138.031 23.3147 138.722 20.5147 140.103 18.088C141.522 15.6613 143.445 13.7947 145.871 12.488C148.298 11.144 151.005 10.472 153.991 10.472C156.978 10.472 159.685 11.144 162.111 12.488C164.538 13.7947 166.442 15.6613 167.823 18.088C169.242 20.5147 169.951 23.3147 169.951 26.488C169.951 29.6613 169.223 32.4613 167.767 34.888C166.349 37.3147 164.407 39.2 161.943 40.544C159.517 41.8507 156.791 42.504 153.767 42.504ZM153.767 35.672C155.186 35.672 156.511 35.336 157.743 34.664C159.013 33.9547 160.021 32.9093 160.767 31.528C161.514 30.1467 161.887 28.4667 161.887 26.488C161.887 23.5387 161.103 21.28 159.535 19.712C158.005 18.1067 156.119 17.304 153.879 17.304C151.639 17.304 149.754 18.1067 148.223 19.712C146.73 21.28 145.983 23.5387 145.983 26.488C145.983 29.4373 146.711 31.7147 148.167 33.32C149.661 34.888 151.527 35.672 153.767 35.672ZM188.918 42.504C185.931 42.504 183.243 41.8507 180.854 40.544C178.465 39.2 176.579 37.3147 175.198 34.888C173.854 32.4613 173.182 29.6613 173.182 26.488C173.182 23.3147 173.873 20.5147 175.254 18.088C176.673 15.6613 178.595 13.7947 181.022 12.488C183.449 11.144 186.155 10.472 189.142 10.472C192.129 10.472 194.835 11.144 197.262 12.488C199.689 13.7947 201.593 15.6613 202.974 18.088C204.393 20.5147 205.102 23.3147 205.102 26.488C205.102 29.6613 204.374 32.4613 202.918 34.888C201.499 37.3147 199.558 39.2 197.094 40.544C194.667 41.8507 191.942 42.504 188.918 42.504ZM188.918 35.672C190.337 35.672 191.662 35.336 192.894 34.664C194.163 33.9547 195.171 32.9093 195.918 31.528C196.665 30.1467 197.038 28.4667 197.038 26.488C197.038 23.5387 196.254 21.28 194.686 19.712C193.155 18.1067 191.27 17.304 189.03 17.304C186.79 17.304 184.905 18.1067 183.374 19.712C181.881 21.28 181.134 23.5387 181.134 26.488C181.134 29.4373 181.862 31.7147 183.318 33.32C184.811 34.888 186.678 35.672 188.918 35.672ZM218.133 0.559999V42H210.293V0.559999H218.133Z" fill="#31C2E4"/>
</svg>
