<svg width="46" height="46" viewBox="0 0 46 46" fill="none" xmlns="http://www.w3.org/2000/svg">
<path d="M38.3334 34.5001C38.3334 35.0084 38.1314 35.4959 37.772 35.8554C37.4126 36.2148 36.925 36.4167 36.4167 36.4167L9.58337 36.4167C9.07504 36.4167 8.58753 36.2148 8.22808 35.8554C7.86864 35.4959 7.66671 35.0084 7.66671 34.5001C7.66671 33.9917 7.86864 33.5042 8.22808 33.1448C8.58753 32.7853 9.07504 32.5834 9.58337 32.5834H36.4167C36.925 32.5834 37.4126 32.7853 37.772 33.1448C38.1314 33.5042 38.3334 33.9917 38.3334 34.5001ZM38.3334 11.5001C38.3334 12.0084 38.1314 12.4959 37.772 12.8554C37.4126 13.2148 36.925 13.4167 36.4167 13.4167L9.58337 13.4167C9.07504 13.4167 8.58753 13.2148 8.22808 12.8554C7.86864 12.4959 7.66671 12.0084 7.66671 11.5001C7.66671 10.9917 7.86864 10.5042 8.22808 10.1448C8.58753 9.78535 9.07504 9.58341 9.58337 9.58341L36.4167 9.58341C36.925 9.58341 37.4126 9.78535 37.772 10.1448C38.1314 10.5042 38.3334 10.9917 38.3334 11.5001ZM24.9167 24.9167C25.425 24.9167 25.9126 24.7148 26.272 24.3554C26.6314 23.9959 26.8334 23.5084 26.8334 23.0001C26.8334 22.4917 26.6314 22.0042 26.272 21.6448C25.9126 21.2853 25.425 21.0834 24.9167 21.0834L9.58337 21.0834C9.07504 21.0834 8.58753 21.2853 8.22808 21.6448C7.86864 22.0042 7.66671 22.4917 7.66671 23.0001C7.66671 23.5084 7.86864 23.9959 8.22808 24.3554C8.58753 24.7148 9.07504 24.9167 9.58337 24.9167L24.9167 24.9167Z" fill="black"/>
</svg>
